# xmcd
#
# Track frame offsets: 
#        151
#        14648
#        25562
#        36410
#        48802
#        57862
#        77372
#        86706
#        92570
#        101814
#        111158
#        116114
#        130422
#        139438
#        148478
#        163430
#        171634
#        185974
#        194450
#        198408
#        206854
#        214134
#        219486
#        229966
#        239404
#        247118
#        258296
#
# Disc length: 3576 seconds
#
# Revision: 0
# Processed by: cddbd v1.5.2PL0 Copyright (c) Steve Scherf et al.
# Submitted via: ExactAudioCopy v0.99pb4
#
DISCID=b00df61b
DTITLE=Austin's Original Hillbilly Poet - Gene Snowden
DYEAR=2008
DGENRE=Country
TTITLE0=I'm The Son Of A Railroad Bum (Version 1)
TTITLE1=I'm A Thief
TTITLE2=The Day You Stole My World Away
TTITLE3=Your Leaving Didn't Bother Me
TTITLE4=How Can I Get On Top
TTITLE5=Sleeping In The Sky
TTITLE6=You Must Be Blind
TTITLE7=They're Waiting In Line (Version 1)
TTITLE8=Cool Drink Of Water
TTITLE9=Battle Zone
TTITLE10=Little Children At Play
TTITLE11=The Enemy
TTITLE12=What Have You Got?
TTITLE13=The Best Loving I've Never Had
TTITLE14=My Loving You
TTITLE15=What You Use To Be
TTITLE16=I'm The Son Of A Railroad Bum (Version 2)
TTITLE17=They're Waiting In Line (Version 2)
TTITLE18=What You'll Never Know
TTITLE19=Give Me A Night To Remember
TTITLE20=Monte
TTITLE21=Ring Around The Roses
TTITLE22=It's A Funny Little World Without You
TTITLE23=Don't Take Your Heart Away From Home
TTITLE24=Your Eyes Are Giving You Away
TTITLE25=Angel Darlin'
TTITLE26=Quit Your Triflin (1950) (Released On Hi-Fidelity)
EXTD=
EXTT0=
EXTT1=
EXTT2=
EXTT3=
EXTT4=
EXTT5=
EXTT6=
EXTT7=
EXTT8=
EXTT9=
EXTT10=
EXTT11=
EXTT12=
EXTT13=
EXTT14=
EXTT15=
EXTT16=
EXTT17=
EXTT18=
EXTT19=
EXTT20=
EXTT21=
EXTT22=
EXTT23=
EXTT24=
EXTT25=
EXTT26=
PLAYORDER=
